<svg width="256" height="96" viewBox="0 0 256 96" fill="none" xmlns="http://www.w3.org/2000/svg">
<path d="M23.3232 16.0909H27.321V28.3707C27.321 29.7495 26.9917 30.956 26.3331 31.9901C25.6806 33.0241 24.7666 33.8305 23.5909 34.4091C22.4152 34.9815 21.0457 35.2678 19.4822 35.2678C17.9126 35.2678 16.54 34.9815 15.3643 34.4091C14.1887 33.8305 13.2746 33.0241 12.6222 31.9901C11.9697 30.956 11.6435 29.7495 11.6435 28.3707V16.0909H15.6413V28.0291C15.6413 28.7493 15.7983 29.3894 16.1122 29.9496C16.4323 30.5097 16.8816 30.9498 17.4602 31.2699C18.0388 31.59 18.7128 31.75 19.4822 31.75C20.2578 31.75 20.9318 31.59 21.5043 31.2699C22.0829 30.9498 22.5291 30.5097 22.843 29.9496C23.1631 29.3894 23.3232 28.7493 23.3232 28.0291V16.0909ZM34.4696 16.0909V35H30.5364V16.0909H34.4696ZM45.1637 20.8182V23.7727H36.6232V20.8182H45.1637ZM38.5621 17.4205H42.4954V30.642C42.4954 31.0052 42.5508 31.2884 42.6616 31.4915C42.7724 31.6884 42.9263 31.8269 43.1232 31.907C43.3263 31.987 43.5603 32.027 43.8249 32.027C44.0096 32.027 44.1942 32.0116 44.3789 31.9808C44.5636 31.9439 44.7051 31.9162 44.8036 31.8977L45.4222 34.8246C45.2253 34.8861 44.9483 34.9569 44.5913 35.0369C44.2343 35.1231 43.8003 35.1754 43.2894 35.1939C42.3415 35.2308 41.5105 35.1046 40.7965 34.8153C40.0887 34.526 39.5378 34.0767 39.1438 33.4673C38.7499 32.858 38.556 32.0885 38.5621 31.1591V17.4205ZM47.7259 35V20.8182H51.6591V35H47.7259ZM49.7017 18.9901C49.117 18.9901 48.6153 18.7962 48.1967 18.4084C47.7843 18.0144 47.5781 17.5436 47.5781 16.9957C47.5781 16.4541 47.7843 15.9893 48.1967 15.6016C48.6153 15.2076 49.117 15.0107 49.7017 15.0107C50.2865 15.0107 50.785 15.2076 51.1974 15.6016C51.616 15.9893 51.8253 16.4541 51.8253 16.9957C51.8253 17.5436 51.616 18.0144 51.1974 18.4084C50.785 18.7962 50.2865 18.9901 49.7017 18.9901ZM54.8098 35V20.8182H58.5584V23.3203H58.7246C59.0201 22.4893 59.5125 21.8338 60.2019 21.3537C60.8913 20.8736 61.7161 20.6335 62.6763 20.6335C63.6489 20.6335 64.4767 20.8767 65.16 21.3629C65.8432 21.843 66.2987 22.4955 66.5265 23.3203H66.6742C66.9635 22.5078 67.4867 21.8584 68.2438 21.3722C69.007 20.8797 69.9088 20.6335 70.949 20.6335C72.2724 20.6335 73.3465 21.0552 74.1713 21.8984C75.0023 22.7356 75.4178 23.9235 75.4178 25.4624V35H71.4938V26.2379C71.4938 25.45 71.2845 24.8591 70.8659 24.4652C70.4474 24.0713 69.9242 23.8743 69.2963 23.8743C68.5823 23.8743 68.0253 24.102 67.6252 24.5575C67.2251 25.0069 67.025 25.6009 67.025 26.3395V35H63.2118V26.1548C63.2118 25.4593 63.0118 24.9053 62.6117 24.4929C62.2177 24.0805 61.6976 23.8743 61.0513 23.8743C60.6143 23.8743 60.2203 23.9851 59.8695 24.2067C59.5248 24.4221 59.2509 24.7268 59.0478 25.1207C58.8446 25.5085 58.7431 25.964 58.7431 26.4872V35H54.8098ZM82.5687 35.2678C81.6639 35.2678 80.8575 35.1108 80.1497 34.7969C79.4418 34.4768 78.8817 34.0059 78.4693 33.3842C78.063 32.7564 77.8599 31.9747 77.8599 31.0391C77.8599 30.2512 78.0046 29.5895 78.2939 29.054C78.5832 28.5185 78.9771 28.0876 79.4757 27.7614C79.9743 27.4351 80.5405 27.1889 81.1745 27.0227C81.8147 26.8565 82.4856 26.7396 83.1873 26.6719C84.0121 26.5857 84.6769 26.5057 85.1816 26.4318C85.6864 26.3518 86.0526 26.2348 86.2804 26.081C86.5081 25.9271 86.622 25.6993 86.622 25.3977V25.3423C86.622 24.7576 86.4373 24.3052 86.068 23.9851C85.7048 23.665 85.1878 23.505 84.5169 23.505C83.809 23.505 83.2458 23.6619 82.8272 23.9759C82.4087 24.2836 82.1317 24.6714 81.9963 25.1392L78.3585 24.8438C78.5431 23.982 78.9063 23.2372 79.448 22.6094C79.9896 21.9754 80.6883 21.4891 81.5439 21.1506C82.4056 20.8059 83.4028 20.6335 84.5353 20.6335C85.3232 20.6335 86.0772 20.7259 86.7974 20.9105C87.5237 21.0952 88.167 21.3814 88.7271 21.7692C89.2934 22.157 89.7396 22.6555 90.0659 23.2649C90.3921 23.8681 90.5552 24.5914 90.5552 25.4347V35H86.8251V33.0334H86.7143C86.4866 33.4766 86.1819 33.8674 85.8002 34.206C85.4186 34.5384 84.96 34.8 84.4245 34.9908C83.889 35.1754 83.2704 35.2678 82.5687 35.2678ZM83.6951 32.5533C84.2737 32.5533 84.7846 32.4394 85.2278 32.2116C85.671 31.9777 86.0188 31.6638 86.2711 31.2699C86.5235 30.8759 86.6497 30.4297 86.6497 29.9311V28.4261C86.5266 28.5062 86.3573 28.58 86.1419 28.6477C85.9326 28.7093 85.6956 28.7678 85.4309 28.8232C85.1663 28.8724 84.9016 28.9186 84.6369 28.9616C84.3722 28.9986 84.1322 29.0324 83.9167 29.0632C83.4551 29.1309 83.0519 29.2386 82.7072 29.3864C82.3625 29.5341 82.0948 29.7341 81.9039 29.9865C81.7131 30.2327 81.6177 30.5405 81.6177 30.9098C81.6177 31.4453 81.8116 31.8546 82.1994 32.1378C82.5933 32.4148 83.0919 32.5533 83.6951 32.5533ZM101.15 20.8182V23.7727H92.6096V20.8182H101.15ZM94.5485 17.4205H98.4817V30.642C98.4817 31.0052 98.5371 31.2884 98.6479 31.4915C98.7587 31.6884 98.9126 31.8269 99.1096 31.907C99.3127 31.987 99.5466 32.027 99.8113 32.027C99.9959 32.027 100.181 32.0116 100.365 31.9808C100.55 31.9439 100.691 31.9162 100.79 31.8977L101.409 34.8246C101.212 34.8861 100.935 34.9569 100.578 35.0369C100.221 35.1231 99.7866 35.1754 99.2757 35.1939C98.3278 35.2308 97.4969 35.1046 96.7828 34.8153C96.075 34.526 95.5241 34.0767 95.1301 33.4673C94.7362 32.858 94.5423 32.0885 94.5485 31.1591V17.4205ZM110.023 35.277C108.564 35.277 107.308 34.9815 106.256 34.3906C105.209 33.7936 104.403 32.9503 103.837 31.8608C103.271 30.7652 102.987 29.4695 102.987 27.9737C102.987 26.5149 103.271 25.2346 103.837 24.1328C104.403 23.031 105.2 22.1723 106.228 21.5568C107.262 20.9413 108.475 20.6335 109.866 20.6335C110.802 20.6335 111.673 20.7843 112.479 21.0859C113.291 21.3814 113.999 21.8277 114.602 22.4247C115.212 23.0218 115.686 23.7727 116.024 24.6776C116.363 25.5762 116.532 26.6288 116.532 27.8352V28.9155H104.557V26.478H112.83C112.83 25.9117 112.707 25.41 112.46 24.973C112.214 24.536 111.873 24.1944 111.436 23.9482C111.005 23.6958 110.503 23.5696 109.931 23.5696C109.334 23.5696 108.804 23.7081 108.343 23.9851C107.887 24.2559 107.53 24.6222 107.271 25.0838C107.013 25.5393 106.881 26.0471 106.874 26.6072V28.9247C106.874 29.6264 107.004 30.2327 107.262 30.7436C107.527 31.2545 107.899 31.6484 108.379 31.9254C108.86 32.2024 109.429 32.3409 110.088 32.3409C110.525 32.3409 110.925 32.2794 111.288 32.1562C111.651 32.0331 111.962 31.8485 112.22 31.6023C112.479 31.3561 112.676 31.0545 112.811 30.6974L116.449 30.9375C116.264 31.8116 115.886 32.5748 115.313 33.2273C114.747 33.8736 114.015 34.3783 113.116 34.7415C112.223 35.0985 111.192 35.277 110.023 35.277Z" fill="black"/>
<path d="M79.6435 73V54.0909H92.3849V57.3871H83.6413V61.8928H91.7294V65.1889H83.6413V69.7038H92.4219V73H79.6435ZM104.325 61.9851V65.1058H95.7019V61.9851H104.325ZM124.435 60.7109H120.391C120.317 60.1877 120.166 59.723 119.938 59.3168C119.711 58.9044 119.418 58.5535 119.061 58.2642C118.704 57.9749 118.292 57.7533 117.824 57.5994C117.362 57.4455 116.861 57.3686 116.319 57.3686C115.34 57.3686 114.488 57.6117 113.762 58.098C113.035 58.5781 112.472 59.2798 112.072 60.2031C111.672 61.1203 111.472 62.2344 111.472 63.5455C111.472 64.8935 111.672 66.026 112.072 66.9432C112.478 67.8603 113.044 68.5528 113.771 69.0206C114.497 69.4884 115.337 69.7223 116.291 69.7223C116.827 69.7223 117.322 69.6515 117.778 69.5099C118.24 69.3684 118.649 69.1622 119.006 68.8913C119.363 68.6143 119.658 68.2789 119.892 67.8849C120.132 67.491 120.298 67.0417 120.391 66.5369L124.435 66.5554C124.33 67.4233 124.069 68.2604 123.65 69.0668C123.238 69.867 122.681 70.584 121.979 71.218C121.283 71.8459 120.452 72.3445 119.486 72.7138C118.526 73.0769 117.439 73.2585 116.227 73.2585C114.54 73.2585 113.032 72.8769 111.703 72.1136C110.379 71.3504 109.333 70.2455 108.563 68.799C107.8 67.3525 107.419 65.6013 107.419 63.5455C107.419 61.4834 107.806 59.7292 108.582 58.2827C109.357 56.8362 110.41 55.7344 111.74 54.9773C113.069 54.214 114.565 53.8324 116.227 53.8324C117.322 53.8324 118.338 53.9863 119.274 54.294C120.215 54.6018 121.049 55.0511 121.776 55.642C122.502 56.2268 123.093 56.9439 123.548 57.7933C124.01 58.6428 124.306 59.6153 124.435 60.7109ZM133.635 73.277C132.201 73.277 130.961 72.9723 129.915 72.3629C128.874 71.7474 128.071 70.8918 127.505 69.7962C126.939 68.6944 126.655 67.4171 126.655 65.9645C126.655 64.4995 126.939 63.2192 127.505 62.1236C128.071 61.0218 128.874 60.1662 129.915 59.5568C130.961 58.9413 132.201 58.6335 133.635 58.6335C135.07 58.6335 136.307 58.9413 137.347 59.5568C138.394 60.1662 139.2 61.0218 139.766 62.1236C140.332 63.2192 140.616 64.4995 140.616 65.9645C140.616 67.4171 140.332 68.6944 139.766 69.7962C139.2 70.8918 138.394 71.7474 137.347 72.3629C136.307 72.9723 135.07 73.277 133.635 73.277ZM133.654 70.2301C134.306 70.2301 134.851 70.0455 135.288 69.6761C135.725 69.3007 136.055 68.7898 136.276 68.1435C136.504 67.4972 136.618 66.7616 136.618 65.9368C136.618 65.112 136.504 64.3764 136.276 63.7301C136.055 63.0838 135.725 62.5729 135.288 62.1974C134.851 61.822 134.306 61.6342 133.654 61.6342C132.995 61.6342 132.441 61.822 131.992 62.1974C131.549 62.5729 131.213 63.0838 130.986 63.7301C130.764 64.3764 130.653 65.112 130.653 65.9368C130.653 66.7616 130.764 67.4972 130.986 68.1435C131.213 68.7898 131.549 69.3007 131.992 69.6761C132.441 70.0455 132.995 70.2301 133.654 70.2301ZM143.173 73V58.8182H146.922V61.3203H147.088C147.383 60.4893 147.876 59.8338 148.565 59.3537C149.255 58.8736 150.079 58.6335 151.04 58.6335C152.012 58.6335 152.84 58.8767 153.523 59.3629C154.206 59.843 154.662 60.4955 154.89 61.3203H155.037C155.327 60.5078 155.85 59.8584 156.607 59.3722C157.37 58.8797 158.272 58.6335 159.312 58.6335C160.636 58.6335 161.71 59.0552 162.535 59.8984C163.366 60.7356 163.781 61.9235 163.781 63.4624V73H159.857V64.2379C159.857 63.45 159.648 62.8591 159.229 62.4652C158.811 62.0713 158.287 61.8743 157.66 61.8743C156.946 61.8743 156.389 62.102 155.988 62.5575C155.588 63.0069 155.388 63.6009 155.388 64.3395V73H151.575V64.1548C151.575 63.4593 151.375 62.9053 150.975 62.4929C150.581 62.0805 150.061 61.8743 149.415 61.8743C148.978 61.8743 148.584 61.9851 148.233 62.2067C147.888 62.4221 147.614 62.7268 147.411 63.1207C147.208 63.5085 147.106 63.964 147.106 64.4872V73H143.173ZM166.888 73V58.8182H170.637V61.3203H170.803C171.098 60.4893 171.591 59.8338 172.28 59.3537C172.969 58.8736 173.794 58.6335 174.754 58.6335C175.727 58.6335 176.555 58.8767 177.238 59.3629C177.921 59.843 178.377 60.4955 178.605 61.3203H178.752C179.042 60.5078 179.565 59.8584 180.322 59.3722C181.085 58.8797 181.987 58.6335 183.027 58.6335C184.351 58.6335 185.425 59.0552 186.249 59.8984C187.08 60.7356 187.496 61.9235 187.496 63.4624V73H183.572V64.2379C183.572 63.45 183.363 62.8591 182.944 62.4652C182.526 62.0713 182.002 61.8743 181.374 61.8743C180.66 61.8743 180.103 62.102 179.703 62.5575C179.303 63.0069 179.103 63.6009 179.103 64.3395V73H175.29V64.1548C175.29 63.4593 175.09 62.9053 174.69 62.4929C174.296 62.0805 173.776 61.8743 173.129 61.8743C172.692 61.8743 172.298 61.9851 171.948 62.2067C171.603 62.4221 171.329 62.7268 171.126 63.1207C170.923 63.5085 170.821 63.964 170.821 64.4872V73H166.888ZM197.066 73.277C195.607 73.277 194.351 72.9815 193.299 72.3906C192.252 71.7936 191.446 70.9503 190.88 69.8608C190.314 68.7652 190.03 67.4695 190.03 65.9737C190.03 64.5149 190.314 63.2346 190.88 62.1328C191.446 61.031 192.243 60.1723 193.271 59.5568C194.305 58.9413 195.518 58.6335 196.909 58.6335C197.845 58.6335 198.715 58.7843 199.522 59.0859C200.334 59.3814 201.042 59.8277 201.645 60.4247C202.255 61.0218 202.729 61.7727 203.067 62.6776C203.406 63.5762 203.575 64.6288 203.575 65.8352V66.9155H191.6V64.478H199.873C199.873 63.9117 199.75 63.41 199.503 62.973C199.257 62.536 198.916 62.1944 198.479 61.9482C198.048 61.6958 197.546 61.5696 196.974 61.5696C196.376 61.5696 195.847 61.7081 195.385 61.9851C194.93 62.2559 194.573 62.6222 194.314 63.0838C194.056 63.5393 193.924 64.0471 193.917 64.6072V66.9247C193.917 67.6264 194.047 68.2327 194.305 68.7436C194.57 69.2545 194.942 69.6484 195.422 69.9254C195.903 70.2024 196.472 70.3409 197.131 70.3409C197.568 70.3409 197.968 70.2794 198.331 70.1562C198.694 70.0331 199.005 69.8485 199.263 69.6023C199.522 69.3561 199.719 69.0545 199.854 68.6974L203.492 68.9375C203.307 69.8116 202.929 70.5748 202.356 71.2273C201.79 71.8736 201.058 72.3783 200.159 72.7415C199.266 73.0985 198.235 73.277 197.066 73.277ZM206.142 73V58.8182H209.955V61.2926H210.103C210.361 60.4124 210.795 59.7476 211.405 59.2983C212.014 58.8428 212.716 58.6151 213.51 58.6151C213.707 58.6151 213.919 58.6274 214.147 58.652C214.375 58.6766 214.575 58.7105 214.747 58.7536V62.2436C214.562 62.1882 214.307 62.139 213.981 62.0959C213.654 62.0528 213.356 62.0312 213.085 62.0312C212.506 62.0312 211.989 62.1574 211.534 62.4098C211.085 62.656 210.728 63.0007 210.463 63.4439C210.204 63.8871 210.075 64.398 210.075 64.9766V73H206.142ZM222.528 73.277C221.075 73.277 219.826 72.9692 218.779 72.3537C217.739 71.732 216.939 70.8703 216.379 69.7685C215.825 68.6667 215.548 67.3987 215.548 65.9645C215.548 64.5118 215.828 63.2377 216.388 62.142C216.954 61.0402 217.758 60.1816 218.798 59.5661C219.838 58.9444 221.075 58.6335 222.51 58.6335C223.747 58.6335 224.83 58.8582 225.76 59.3075C226.689 59.7569 227.425 60.3878 227.966 61.2003C228.508 62.0128 228.806 62.9669 228.862 64.0625H225.15C225.046 63.3546 224.769 62.7853 224.319 62.3544C223.876 61.9174 223.294 61.6989 222.574 61.6989C221.965 61.6989 221.432 61.8651 220.977 62.1974C220.528 62.5237 220.177 63.0007 219.924 63.6286C219.672 64.2564 219.546 65.0166 219.546 65.9091C219.546 66.8139 219.669 67.5833 219.915 68.2173C220.167 68.8513 220.521 69.3345 220.977 69.6669C221.432 69.9993 221.965 70.1655 222.574 70.1655C223.024 70.1655 223.427 70.0732 223.784 69.8885C224.147 69.7038 224.445 69.4361 224.679 69.0852C224.919 68.7282 225.076 68.3004 225.15 67.8018H228.862C228.8 68.8852 228.505 69.8393 227.975 70.6641C227.452 71.4827 226.729 72.1229 225.806 72.5845C224.882 73.0462 223.79 73.277 222.528 73.277ZM237.843 73.277C236.384 73.277 235.129 72.9815 234.076 72.3906C233.03 71.7936 232.223 70.9503 231.657 69.8608C231.091 68.7652 230.808 67.4695 230.808 65.9737C230.808 64.5149 231.091 63.2346 231.657 62.1328C232.223 61.031 233.021 60.1723 234.048 59.5568C235.083 58.9413 236.295 58.6335 237.686 58.6335C238.622 58.6335 239.493 58.7843 240.299 59.0859C241.112 59.3814 241.82 59.8277 242.423 60.4247C243.032 61.0218 243.506 61.7727 243.845 62.6776C244.183 63.5762 244.352 64.6288 244.352 65.8352V66.9155H232.377V64.478H240.65C240.65 63.9117 240.527 63.41 240.281 62.973C240.035 62.536 239.693 62.1944 239.256 61.9482C238.825 61.6958 238.323 61.5696 237.751 61.5696C237.154 61.5696 236.624 61.7081 236.163 61.9851C235.707 62.2559 235.35 62.6222 235.092 63.0838C234.833 63.5393 234.701 64.0471 234.695 64.6072V66.9247C234.695 67.6264 234.824 68.2327 235.083 68.7436C235.347 69.2545 235.72 69.6484 236.2 69.9254C236.68 70.2024 237.249 70.3409 237.908 70.3409C238.345 70.3409 238.745 70.2794 239.108 70.1562C239.471 70.0331 239.782 69.8485 240.041 69.6023C240.299 69.3561 240.496 69.0545 240.632 68.6974L244.269 68.9375C244.085 69.8116 243.706 70.5748 243.134 71.2273C242.567 71.8736 241.835 72.3783 240.936 72.7415C240.044 73.0985 239.013 73.277 237.843 73.277Z" fill="black"/>
<path fill-rule="evenodd" clip-rule="evenodd" d="M58.5057 65.6836C58.8135 66.0353 59 66.4959 59 67C59 68.1046 58.1046 69 57 69C55.8954 69 55 68.1046 55 67C55 66.4959 55.1865 66.0353 55.4943 65.6836L53.2865 62.2869C51.8939 63.3857 51 65.0885 51 67C51 70.3137 53.6863 73 57 73C60.3137 73 63 70.3137 63 67C63 65.0885 62.1061 63.3857 60.7135 62.2869L58.5057 65.6836ZM61.807 60.6047C63.7461 62.0645 65 64.3858 65 67C65 71.4183 61.4183 75 57 75C52.5817 75 49 71.4183 49 67C49 64.3858 50.2539 62.0645 52.193 60.6047L50.0094 57.2453C46.976 59.4231 45 62.9808 45 67C45 73.6274 50.3726 79 57 79C63.6274 79 69 73.6274 69 67C69 62.9808 67.024 59.4231 63.9906 57.2453L61.807 60.6047ZM65.0816 55.5667C68.6625 58.1025 71 62.2783 71 67C71 74.732 64.732 81 57 81C49.268 81 43 74.732 43 67C43 62.2783 45.3375 58.1025 48.9184 55.5667L47.8276 53.8885C43.6991 56.782 41 61.5758 41 67C41 75.8366 48.1634 83 57 83C65.8366 83 73 75.8366 73 67C73 61.5758 70.3009 56.782 66.1724 53.8886L65.0816 55.5667Z" fill="black"/>
<path d="M57 64.5L48 50.5C53.0722 46.6212 60.0613 46.4367 65.3312 50.0424L66 50.5L57 64.5Z" fill="black"/>
</svg>
